<?xml version="1.0" encoding="utf-8"?>
<!-- Generator: Adobe Illustrator 19.1.0, SVG Export Plug-In . SVG Version: 6.00 Build 0)  -->
<svg version="1.1" id="Layer_1" xmlns="http://www.w3.org/2000/svg" xmlns:xlink="http://www.w3.org/1999/xlink" x="0px" y="0px"
	 width="140px" height="29.8px" viewBox="0 0 140 29.8" style="enable-background:new 0 0 140 29.8;" xml:space="preserve">
<style type="text/css">
	.st0{fill:#FFFFFF;}
</style>
<g>
	<path class="st0" d="M40.9,8c-0.1-0.2-0.3-0.4-0.5-0.4h-5.2c-0.2,0-0.5,0.2-0.5,0.4l-6.5,20.7c-0.1,0.2,0,0.4,0.1,0.5
		c0.1,0.1,0.3,0.2,0.4,0.2h3.6c0.2,0,0.5-0.2,0.5-0.4l4.5-15.2c0,0,0.1-0.4,0.5-0.4c0.4,0,0.5,0.4,0.5,0.4l2.1,7.2h-2.8
		c-0.2,0-0.5,0.2-0.5,0.4l-0.8,2.9c0,0.2,0,0.3,0.1,0.5c0.1,0.1,0.3,0.2,0.4,0.2h4.8l1.3,4c0.1,0.2,0.3,0.4,0.5,0.4h3.6
		c0.2,0,0.3-0.1,0.4-0.2c0.1-0.1,0.1-0.3,0.1-0.5L40.9,8z"/>
	<path class="st0" d="M56.4,26.3c0-0.2-0.1-0.3-0.2-0.4c-0.1-0.1-0.3-0.1-0.4-0.1c-0.6,0.1-1.1,0.2-1.6,0.2c-0.8,0-1.2-0.4-1.2-1.1
		v-7.9h3.2c0.3,0,0.6-0.2,0.6-0.6v-2.5c0-0.3-0.2-0.6-0.6-0.6H53V9.5c0-0.2-0.1-0.3-0.2-0.4C52.7,9,52.5,8.9,52.3,9l-3.3,0.5
		c-0.3,0-0.5,0.3-0.5,0.5v3.4h-1.8c-0.3,0-0.6,0.2-0.6,0.6v2.5c0,0.3,0.2,0.6,0.6,0.6h1.8v8.5c0,2.9,1.5,4.4,4.5,4.4
		c0.9,0,2.3-0.2,3.3-0.5c0.3-0.1,0.4-0.3,0.4-0.6L56.4,26.3z"/>
	<path class="st0" d="M62.5,7.2h-3.3c-0.3,0-0.6,0.2-0.6,0.6v21.1c0,0.3,0.2,0.6,0.6,0.6h3.3c0.3,0,0.6-0.2,0.6-0.6V7.8
		C63,7.4,62.8,7.2,62.5,7.2z"/>
	<path class="st0" d="M70.9,13c-1.7,0-3.7,0.3-5.1,0.7c-0.3,0.1-0.4,0.3-0.4,0.6l0.4,2.4c0,0.1,0.1,0.3,0.2,0.4
		c0.1,0.1,0.3,0.1,0.4,0.1c1.4-0.3,2.8-0.4,4-0.4c2.4,0,2.7,0.5,2.7,2.1v1.4h-3.5c-3.4,0-4.8,1.4-4.8,4.6c0,3.1,1.6,4.9,4.3,4.9
		c1.6,0,3.2-0.4,4.5-1.2l0.1,0.5c0.1,0.2,0.3,0.4,0.5,0.4h2.6c0.3,0,0.6-0.2,0.6-0.6v-10C77.5,14.6,75.7,13,70.9,13z M73.1,23.5v1.9
		c-0.5,0.3-1.5,0.7-2.7,0.7c-1,0-1.3-0.3-1.3-1.3c0-1,0.2-1.3,1.4-1.3H73.1z"/>
	<path class="st0" d="M85.7,19.5c-2-0.5-2-0.5-2-1.7c0-0.7,0.1-1.1,1.8-1.1c1.1,0,2.8,0.2,3.9,0.4c0.1,0,0.3,0,0.4-0.1
		c0.1-0.1,0.2-0.2,0.2-0.4l0.3-2.5c0-0.3-0.1-0.5-0.4-0.6c-1.3-0.3-3-0.5-4.5-0.5c-5,0-6.1,1.9-6.1,4.8c0,3.1,0.6,4.2,4.4,5.1
		c2.5,0.6,2.5,1.1,2.5,1.8c0,1-0.1,1.3-1.8,1.3c-1.3,0-2.9-0.2-4.3-0.6c-0.1,0-0.3,0-0.4,0.1c-0.1,0.1-0.2,0.2-0.2,0.4l-0.4,2.4
		c-0.1,0.3,0.1,0.5,0.4,0.6c1.5,0.5,3.6,0.8,5.2,0.8c4.9,0,5.9-2,5.9-5.1C90.7,21.3,90.1,20.6,85.7,19.5z"/>
	<path class="st0" d="M98.4,19.5c-2-0.5-2-0.5-2-1.7c0-0.7,0.1-1.1,1.8-1.1c1.1,0,2.8,0.2,3.9,0.4c0.1,0,0.3,0,0.4-0.1
		c0.1-0.1,0.2-0.2,0.2-0.4l0.3-2.5c0-0.3-0.1-0.5-0.4-0.6c-1.3-0.3-3-0.5-4.5-0.5c-5,0-6.1,1.9-6.1,4.8c0,3.1,0.6,4.2,4.4,5.1
		C99,23.5,99,24,99,24.7c0,1-0.1,1.3-1.8,1.3c-1.3,0-2.9-0.2-4.3-0.6c-0.1,0-0.3,0-0.4,0.1c-0.1,0.1-0.2,0.2-0.2,0.4l-0.4,2.4
		c-0.1,0.3,0.1,0.5,0.4,0.6c1.5,0.5,3.6,0.8,5.2,0.8c4.9,0,5.9-2,5.9-5.1C103.3,21.3,102.7,20.6,98.4,19.5z"/>
	<path class="st0" d="M109,7.2h-3.3c-0.3,0-0.6,0.2-0.6,0.6v2.9c0,0.3,0.2,0.6,0.6,0.6h3.3c0.3,0,0.6-0.2,0.6-0.6V7.8
		C109.6,7.4,109.3,7.2,109,7.2z"/>
	<path class="st0" d="M109,13.3h-3.3c-0.3,0-0.6,0.2-0.6,0.6v15c0,0.3,0.2,0.6,0.6,0.6h3.3c0.3,0,0.6-0.2,0.6-0.6v-15
		C109.6,13.6,109.3,13.3,109,13.3z"/>
	<path class="st0" d="M117.5,13c-1.7,0-3.7,0.3-5.1,0.7c-0.3,0.1-0.4,0.3-0.4,0.6l0.4,2.4c0,0.1,0.1,0.3,0.2,0.4
		c0.1,0.1,0.3,0.1,0.4,0.1c1.4-0.3,2.8-0.4,4-0.4c2.4,0,2.7,0.5,2.7,2.1v1.4h-3.5c-3.4,0-4.8,1.4-4.8,4.6c0,3.1,1.6,4.9,4.3,4.9
		c1.6,0,3.2-0.4,4.5-1.2l0.1,0.5c0.1,0.2,0.3,0.4,0.5,0.4h2.6c0.3,0,0.6-0.2,0.6-0.6v-10C124.1,14.6,122.3,13,117.5,13z M119.7,23.5
		v1.9c-0.5,0.3-1.5,0.7-2.7,0.7c-1,0-1.3-0.3-1.3-1.3c0-1,0.2-1.3,1.4-1.3H119.7z"/>
	<path class="st0" d="M136.2,13c-1.7,0-4.1,0.6-6.1,1.5l-0.2-0.8c-0.1-0.2-0.3-0.4-0.5-0.4h-2.4c-0.3,0-0.6,0.2-0.6,0.6v15
		c0,0.3,0.2,0.6,0.6,0.6h3.3c0.3,0,0.6-0.2,0.6-0.6V18.5c1.2-0.6,2.8-1.2,3.8-1.2c0.7,0,1,0.3,1,1v10.6c0,0.3,0.2,0.6,0.6,0.6h3.3
		c0.3,0,0.6-0.2,0.6-0.6v-11C140,14.7,138.7,13,136.2,13z"/>
	<path class="st0" d="M32.1,0.3C32,0.1,31.7,0,31.5,0c-0.1,0-0.2,0-0.4,0.1c-4.5,2.5-9.7,3.7-15,3.8c-5.3,0-10.5-1.3-15-3.8
		C1,0,0.9,0,0.8,0C0.5,0,0.3,0.1,0.1,0.3c-0.2,0.3-0.2,0.8,0.1,1C2.5,3,5,4.3,7.6,5.2c2.7,0.9,5.6,1.4,8.5,1.4h0
		c2.9,0,5.8-0.5,8.5-1.4C27.3,4.3,29.7,3,32,1.3C32.3,1.1,32.3,0.6,32.1,0.3z"/>
	<path class="st0" d="M27,7.3c-0.1-0.1-0.2-0.1-0.4-0.1c-0.1,0-0.1,0-0.2,0c-1.3,0.5-2.6,0.9-3.8,1.2c-0.2,0.1-0.4,0.2-0.5,0.5
		c-0.9,2.4-3.1,4.7-5.5,7.1c-0.1,0.1-0.2,0.2-0.4,0.2c-0.2,0-0.3-0.1-0.4-0.2c-2.3-2.4-4.6-4.7-5.5-7.1c-0.1-0.2-0.3-0.4-0.5-0.5
		C8.5,8.1,7.2,7.7,5.9,7.2c-0.1,0-0.1,0-0.2,0c-0.1,0-0.3,0-0.4,0.1C5.1,7.4,5,7.6,5.1,7.8c0.2,2,1,4,2.4,6c1.3,1.9,3.1,3.7,4.8,5.4
		c3.1,3.2,6.1,6.2,6.3,9.6c0,0.3,0.3,0.6,0.6,0.6h3.7c0.2,0,0.3-0.1,0.4-0.2c0.1-0.1,0.2-0.3,0.2-0.4c-0.1-2.3-1-4.7-2.7-7.1
		c-0.4-0.5-0.7-1-1.1-1.5c-0.2-0.2-0.1-0.4,0-0.6c0.1-0.1,0.2-0.2,0.4-0.4c1.7-1.7,3.4-3.5,4.8-5.4c1.4-2,2.2-4,2.4-6
		C27.2,7.6,27.1,7.4,27,7.3z"/>
	<g>
		<path class="st0" d="M12.2,21.9c-0.1-0.1-0.2-0.2-0.4-0.2c-0.3,0-0.4,0.2-0.5,0.3c-1.5,2.3-2.3,4.5-2.4,6.8c0,0.2,0.1,0.3,0.2,0.4
			c0.1,0.1,0.3,0.2,0.4,0.2h3.6c0.3,0,0.6-0.2,0.6-0.6c0.1-1.1,0.4-2.1,1-3.3c0.2-0.4,0-0.8-0.1-0.9C14,23.9,13.3,23.1,12.2,21.9z"
			/>
	</g>
	<path class="st0" d="M16.1,9.1c1.1,0,1.8-0.1,2-0.1c0.3,0,0.6,0.2,0.6,0.6c0,0.1,0,0.2,0,0.2c-0.2,0.4-0.8,1.9-2.1,3.1
		c-0.1,0.1-0.3,0.2-0.4,0.2h0c-0.1,0-0.3,0-0.4-0.2c-1.3-1.3-2-2.7-2.1-3.1c0-0.1,0-0.1,0-0.2c0-0.3,0.3-0.6,0.6-0.6
		C14.3,9,15,9.1,16.1,9.1L16.1,9.1z"/>
</g>
</svg>
