<svg width="25" height="25" viewBox="0 0 25 25" xmlns="http://www.w3.org/2000/svg"><title>Fill 1</title><path d="M12.235 13.673l-1.116-.867c-.34-.282-.806-.654-.806-1.336 0-.684.465-1.12.87-1.522 1.3-1.024 2.6-2.113 2.6-4.41 0-2.36-1.487-3.602-2.2-4.19h1.92l2.017-1.268h-6.105c-1.675 0-4.09.398-5.855 1.857-1.333 1.15-1.983 2.734-1.983 4.16 0 2.422 1.86 4.876 5.143 4.876.31 0 .65-.03.99-.062-.152.373-.307.684-.307 1.21 0 .963.494 1.552.93 2.11-1.395.097-4 .25-5.92 1.43-1.826 1.089-2.383 2.669-2.383 3.789 0 2.3 2.166 4.44 6.66 4.44 5.33 0 8.15-2.948 8.15-5.866 0-2.145-1.24-3.2-2.602-4.35zm-4.06-3.57c-2.665 0-3.872-3.447-3.872-5.526 0-.81.153-1.645.68-2.298.498-.623 1.364-1.026 2.172-1.026 2.57 0 3.903 3.477 3.903 5.713 0 .56-.062 1.55-.774 2.267-.498.498-1.332.868-2.107.868zm.032 12.485c-3.315 0-5.453-1.586-5.453-3.79 0-2.205 1.982-2.95 2.664-3.198 1.3-.438 2.974-.5 3.254-.5.31 0 .465 0 .71.032 2.358 1.677 3.38 2.513 3.38 4.1 0 1.924-1.58 3.355-4.556 3.355zm11.853-12.533v-3.105h-1.533v3.105h-3.1v1.55h3.1v3.123h1.533v-3.123h3.115v-1.55h-3.115" fill="#fff"/></svg>