<svg width="29" height="23" viewBox="0 0 29 23" xmlns="http://www.w3.org/2000/svg"><title>Imported Layers</title><path d="M19.1.072c-3.02 0-5.472 2.45-5.472 5.473 0 .43.048.847.142 1.247-4.548-.228-8.58-2.407-11.28-5.718-.47.808-.74 1.748-.74 2.75 0 1.9.965 3.575 2.434 4.556-.897-.028-1.74-.275-2.48-.685v.07c0 2.65 1.887 4.863 4.39 5.365-.458.125-.942.192-1.44.192-.354 0-.696-.034-1.03-.098.695 2.174 2.716 3.756 5.11 3.8-1.872 1.47-4.232 2.344-6.796 2.344-.442 0-.877-.026-1.306-.076 2.422 1.553 5.3 2.46 8.39 2.46 10.065 0 15.57-8.34 15.57-15.572 0-.237-.005-.473-.016-.708 1.07-.772 1.997-1.736 2.73-2.833-.98.434-2.035.73-3.142.86 1.13-.676 1.998-1.75 2.406-3.027-1.057.627-2.23 1.083-3.475 1.328-.998-1.062-2.42-1.726-3.995-1.726" fill="#fff"/></svg>