<svg width="133" height="24" viewBox="0 0 133 24" xmlns="http://www.w3.org/2000/svg"><title>BitBucket Logo</title><path d="M65.013 6.914c-1.48 0-2.977.365-3.99.745v-5.549c0-.28-.227-.505-.506-.505h-2.99c-.28 0-.502.226-.502.505v19.102c0 .242.174.454.413.496 1.845.337 4.02.454 5.327.454 5.615 0 6.763-2.387 6.763-5.973v-4.18c0-3.384-1.52-5.097-4.516-5.097m-2.075 11.778c-.757 0-1.384-.028-1.916-.09v-7.474c.824-.37 1.983-.74 2.91-.74 1.134 0 1.596.443 1.596 1.535v4.385c0 1.582-.4 2.386-2.59 2.386m20.345-11.485h-2.986c-.28 0-.505.227-.505.502v9.462c-1.076.546-2.592 1.112-3.494 1.112-.673 0-.922-.25-.922-.922v-9.653c0-.275-.23-.502-.512-.502h-2.983c-.284 0-.507.227-.507.502v10.032c0 2.936 1.155 4.424 3.43 4.424 1.585 0 3.74-.544 5.562-1.4l.22.745c.066.215.26.363.486.363h2.212c.28 0 .506-.228.506-.506v-13.659c0-.274-.227-.5-.506-.5m12.03 11.574c-.02-.14-.103-.263-.214-.344-.118-.08-.263-.105-.4-.074-.857.195-1.756.3-2.6.3-1.893 0-2.44-.48-2.44-2.15v-3.947c0-1.67.547-2.15 2.44-2.15.45 0 1.573.064 2.6.3.138.03.282.005.4-.076.115-.08.197-.203.213-.345l.356-2.364c.035-.248-.11-.485-.355-.556-1.15-.34-2.5-.46-3.297-.46-4.515 0-6.357 1.645-6.357 5.68v3.89c0 4.034 1.84 5.68 6.357 5.68 1.096 0 2.36-.176 3.298-.458.245-.072.39-.31.356-.56l-.355-2.365m20.586-11.866c-4.008 0-6.123 1.996-6.123 5.77v3.77c0 3.896 1.984 5.71 6.242 5.71 1.732 0 3.58-.303 5.067-.83.236-.084.378-.332.328-.58l-.443-2.137c-.03-.137-.115-.26-.233-.33-.12-.073-.266-.092-.4-.053-1.375.387-2.678.577-3.998.577-2.176 0-2.563-.704-2.563-2.18v-.516h7.417c.282 0 .505-.224.505-.507v-2.75c0-4.055-1.84-5.942-5.8-5.942m-2.123 5.902v-.485c0-1.407.687-2.064 2.154-2.064 1.62 0 1.945.79 1.945 2.064v.485h-4.098m-69.748-5.62h-2.987c-.28 0-.506.228-.506.505v13.657c0 .28.227.506.506.506h2.986c.285 0 .507-.226.507-.506v-13.657c0-.277-.223-.505-.508-.505m0-5.594h-2.987c-.28 0-.506.23-.506.507v2.573c0 .283.227.507.506.507h2.986c.285 0 .507-.224.507-.507v-2.573c0-.278-.223-.507-.508-.507m-7.523 9.85c1.238-.682 1.775-1.636 1.775-3.104v-2.01c0-2.94-1.765-4.367-5.388-4.367h-7.37c-.276 0-.503.226-.503.505v18.882c0 .28.227.506.503.506h7.9c3.517 0 5.535-1.708 5.535-4.69v-2.073c0-1.778-.903-3.106-2.448-3.65m-7.374-6.01h3.32c1.504 0 1.714.657 1.714 1.36v1.72c0 1.12-.522 1.597-1.743 1.597h-.718c-.283 0-.51.227-.51.507v2.371c0 .282.228.508.51.508h1.3c1.302 0 1.83.504 1.83 1.74v1.46c0 1.26-.54 1.684-2.152 1.684h-3.55v-12.948m26.115 13.52c-.02-.14-.1-.266-.217-.347-.12-.08-.266-.105-.404-.07-.53.133-1.035.205-1.425.205-.74 0-1.067-.32-1.067-1.04v-7.235h2.9c.28 0 .506-.226.506-.506v-2.257c0-.278-.226-.505-.505-.505h-2.902v-3.48c0-.146-.066-.285-.174-.38-.11-.097-.26-.14-.404-.12l-2.986.416c-.25.036-.435.25-.435.502v3.062h-1.63c-.278 0-.505.227-.505.505v2.256c0 .28.227.507.506.507h1.63v7.705c0 2.644 1.387 3.986 4.13 3.986.78 0 2.107-.18 2.973-.48.233-.08.37-.312.335-.555l-.328-2.167m76.296-.002c-.02-.142-.1-.267-.22-.348-.118-.078-.266-.105-.4-.07-.532.132-1.034.205-1.427.205-.736 0-1.07-.32-1.07-1.04v-7.235h2.904c.282 0 .505-.227.505-.505v-2.259c0-.278-.224-.505-.506-.505h-2.905v-3.48c0-.147-.06-.286-.172-.38-.112-.098-.26-.142-.404-.12l-2.986.415c-.25.035-.437.25-.437.5v3.065h-1.626c-.276 0-.505.227-.505.505v2.258c0 .277.228.505.504.505h1.627v7.706c0 2.644 1.393 3.986 4.133 3.986.784 0 2.107-.18 2.973-.48.23-.08.373-.31.338-.555l-.328-2.166m-22.238 2.06l-3.993-6.594 3.852-6.492c.093-.156.095-.35.005-.508-.09-.158-.258-.255-.44-.255h-3.298c-.18 0-.348.096-.438.253l-3.665 6.353v-11.666c0-.28-.225-.506-.505-.506h-2.981c-.28 0-.507.226-.507.506v19.246c0 .28.226.506.506.506h2.985c.28 0 .506-.226.506-.506v-6.3l3.9 6.526c.09.153.256.247.434.247h3.24c.28 0 .507-.227.507-.506 0-.116-.037-.222-.102-.307m-99.451-20.773c-5.405 0-9.818 1.45-9.818 3.255 0 .475 1.18 7.29 1.646 9.99.21 1.213 3.34 2.99 8.17 2.99l.005-.014v.014c4.83 0 7.96-1.777 8.17-2.99.47-2.7 1.647-9.515 1.647-9.99-.001-1.803-4.414-3.255-9.818-3.255m0 14.048c-1.725 0-3.122-1.398-3.122-3.12 0-1.725 1.397-3.122 3.12-3.122s3.122 1.397 3.122 3.12-1.397 3.124-3.12 3.124m-.003-9.784c-3.473-.006-6.287-.61-6.286-1.348.002-.74 2.82-1.333 6.29-1.328 3.474.005 6.288.61 6.287 1.348 0 .74-2.817 1.333-6.29 1.328m7.058 11.692c-.15 0-.27.106-.27.106s-2.417 1.915-6.787 1.915l-6.789-1.917s-.12-.106-.27-.106c-.177 0-.346.12-.346.384l.008.083c.375 2.01.65 3.434.697 3.65.327 1.48 3.217 2.593 6.698 2.594 3.48 0 6.37-1.115 6.698-2.593.048-.217.322-1.642.698-3.65l.008-.084c0-.264-.17-.384-.347-.384m-5.496-5.03c0 .864-.7 1.564-1.565 1.564-.864 0-1.564-.7-1.564-1.564 0-.864.7-1.564 1.565-1.564.864 0 1.564.7 1.564 1.564" fill="#fff"/></svg>